<svg fill="none" height="18" viewBox="0 0 18 18" width="18" xmlns="http://www.w3.org/2000/svg"><path d="m9 18c4.9706 0 9-4.0294 9-9 0-4.97056-4.0294-9-9-9-4.97056 0-9 4.02944-9 9 0 4.9706 4.02944 9 9 9z" fill="#0052b4"/><path d="m9.00001 2.57143.34248 1.05217h1.10171l-.89541.64781.34248 1.0563-.89538-.65193-.89538.65193.34247-1.0563-.89538-.64781h1.10582zm-4.54703 1.88153.99028.5034.77984-.78398-.1733 1.09344.98616.50339-1.09344.1733-.1733 1.09344-.50339-.99029-1.09343.17743.78397-.78397zm-1.88154 4.54704 1.05217-.34247v-1.10169l.64781.89538 1.0563-.34247-.65193.89538.65193.89538-1.0563-.34247-.64781.89536v-1.1058zm1.88154 4.547.50339-.9902-.78397-.7799 1.09343.1733.50339-.9861.1733 1.0934 1.09344.1733-.99028.5034.17742 1.0934-.78397-.784zm4.54703 1.8816-.34247-1.0522h-1.10169l.89538-.6478-.34247-1.0563.89538.6519.89538-.6519-.34247 1.0563.89535.6478h-1.10579zm4.54709-1.8816-.9903-.5034-.7799.784.1733-1.0934-.9861-.5034 1.0934-.1733.1733-1.0934.5034.9902 1.0934-.1774-.7839.784zm1.8815-4.547-1.0522.34247v1.10173l-.6478-.89542-1.0563.34248.6519-.89538-.6519-.89538 1.0563.34247.6478-.89538v1.10581zm-1.8815-4.54704-.5034.99028.7839.77985-1.0934-.1733-.5034.98616-.1733-1.09344-1.0934-.1733.9903-.50339-.1775-1.09344.784.78398z" fill="#ffda44"/></svg>