<svg fill="none" height="18" viewBox="0 0 18 18" width="18" xmlns="http://www.w3.org/2000/svg" xmlns:xlink="http://www.w3.org/1999/xlink"><clipPath id="a"><path d="m0 0h18v18h-18z"/></clipPath><g clip-path="url(#a)"><circle cx="9" cy="9" fill="#00ce08" r="9"/><path d="m13.577 8.74963-.06-.07998-.02-.03999v-.07998l-.0401-.04h-.1401l-.08-.07998-.0801-.01999.02-.02.1001-.01999-.04-.09998.08-.05999.1001-.02-.04-.13997-.04-.05998-.1201.03999h-.1001l-.1001.11997-.08.07998-.02.07999-.1001.05999-.0801.17996.1401.07998.0201.07998c.08.05999.1601.11998.2601.17996l.0801.07999.06-.02.0601.02-.0801.03999v.09998.05998l-.04.05999.02.07998.06.07998.1201-.01999.0801.03999.1601-.03999.1601-.09998v-.03999l-.0601-.07998-.04-.15997h-.06v-.09998l-.0601.02-.04-.15997.1201.02.08-.07998-.08-.04-.06-.07998-.0801.07998zm-7.80526-8.158238c-.04002.019996-.08005.019996-.10006.039992l-.08006.079983.08006-.059988zm-.22015.099979c-.02001 0-.06004.019995-.08005.039991-.02001 0-.06004.039992-.12008.059987l-.06004.039992c.10007-.039992.18012-.099979.26017-.13997zm12.44841 8.418189c-.02-.07999-.04-.17997-.06-.25995l-.0401-.07998c0 .09998-.02.21995-.04.29993l-.02.04-.02.05998v-.17996l-.04-.07998-.0601-.07998v-.05999.01999l-.08-.03999-.0201-.01999-.02-.05999-.02-.03999-.04-.03999-.04.07998.02.03999v.07998l-.02.02v.03999l-.0201.02-.02.01999v.05999l-.02.03999-.06.11998.02.07998-.02.11997-.0801.19996-.02.27994-.04.13997-.0601.15992v.06c-.02.08-.06.12-.08.2l-.04.04-.02.12.04.1399.02.1-.02.16.02.2199-.04.06-.0401.12.0201.02-.0801.1-.02.0999-.04.08-.0801-.06c-.02-.08-.06-.1599-.0801-.2599l-.04-.04-.02-.06-.04-.14-.02-.0799-.1001-.1c-.04-.12-.0801-.26-.1201-.3599l-.04-.16-.04-.1-.1201.18-.0801.04-.1601-.08.04-.08-.04-.04-.1401-.04-.08.02-.0601-.08-.1-.06-.1802.14c-.1.08-.2201.12-.3202.2l-.2201.0799-.0801.06-.1201.04-.08-.1399h-.0601l-.1.0599-.1001.1-.1601.02-.1401-.06h-.1201l-.1-.0999-.1201-.14-.0601.06-.08-.02-.04.08-.0801.02.04.0599v.02c.0401.08.0801.12.1201.2l.0801.02.04.04.08.04.0201.06v.04l.02.0399.04.02.02.04.02.02-.02-.08.02-.0799.0401-.04.04.04.02.0799-.02.08.04.04.02-.02.02.04.0801-.06c.06-.02.1201-.04.1801-.06.0801-.1199.1401-.2399.2001-.3599l.0201-.06h.02v.06l-.02.04.04.1.08.08.0801.02.0801-.02c.04.04.08.06.1.08h.04v.0399c-.02.06-.04.08-.04.14l-.04.08-.04.1-.0601.02-.02.04-.02.0799.02.08-.02.02c-.02 0-.04.02-.06.02l-.0801.08v.08l.02-.02-.04.02-.04.06v.06l-.0601.0599-.08.02-.0801.08-.06.04-.0801.08-.02.08v.06l-.1201.0799-.2001.14-.1001.12-.06.02h-.04l-.0801.08-.0801.06-.1.0399-.0601.06-.04.04-.04.02-.02.04-.0801.02-.04.04-.0801.02v-.14-.08l-.04-.02-.02-.0799-.04-.04.04-.02-.02-.06.02-.04-.02-.06-.02-.06-.0401-.04-.02-.06h-.06l-.0801-.0799-.06-.12-.1001-.08h-.08l-.1001-.1-.02-.08v-.0799l-.0801-.14-.08-.04-.0801-.02-.06-.08v-.04l-.0601-.0799-.04-.02-.08-.08c-.0601-.06-.1201-.12-.1802-.18l-.08.02.02-.08v-.06l.02-.0599-.04.0799v.1l-.04.08-.0401.04c-.04-.04-.08-.06-.12-.08l-.1201-.18-.02.02.08.14.1001.12.1201.1999.06.08.06.08.1401.12h-.02l.02.08.1802.0799.04.02.06.12-.04.04.04.14.0601.1399c.06.02.08.04.1401.06l.08.14.0601.1.08.06.2001.0799c.0801.06.1401.08.2002.14l.08.02.0401.04v.06l-.0801.08c.04.02.0801.02.1001.04l.04.06.0801.0399.08-.02.1201-.0799.1401-.06.1201-.08.08-.04.0601-.04c.04-.02.08-.04.12-.06l.0601-.04.08-.04.0601-.0799.06-.02v.04l-.02.0799v.1l-.02.06-.06.14c-.0601.1199-.0801.2399-.1401.3599l-.1201.2199c-.0801.12-.1801.26-.2802.4l-.1401.1399c-.1201.08-.2402.2-.3402.28l-.2402.1599-.04.08-.0401.04-.12.04-.0401.06-.06.02-.04.08-.0601.06-.04.0799-.06.06-.0801.14v.06l.0801.02v.02l-.0601.08v.0399l-.02.06.04.06.0401.08h.06l.04-.04-.02.08v.08l-.04.1399.02.04-.06.08-.0801.08-.08.08c-.0801.04-.2002.08-.2802.12l-.1802.0999h-.06l-.1001.08-.06.02-.02.06.06.04.02.04v.02h.02l-.02.08-.04.04h.02l-.04.02-.06.0399c-.0801.04-.1802.08-.2802.08l-.0801.04v.02h.04l-.02.04-.06.06-.04.04-.0401.04c-.04.02-.08.04-.1201.06l-.08.04-.06.0399-.0801.04c-.0801.04-.1601.08-.2602.1l-.1.02-.1201.04h-.0601l-.02.02h-.08003l-.06004.02h-.08006l-.08005.02h-.06004l-.12008.02-.10007.02-.08005.02h-.06005l-.06004-.02h-.04002l-.06004-.02-.02002-.02v-.02l-.04002-.04h.04002v-.04l-.04002-.06c-.06004-.04-.10007-.08-.16011-.1l-.08006-.0399-.06004-.04-.04002-.06-.04003-.04-.06004-.08v-.08l-.02002-.04-.06003-.04-.10007-.0999-.08006-.08-.04002-.06-.12008-.08-.02002-.04-.02001-.06.02001-.08.06004-.0799v-.04l.06004-.08.04003-.04.08005-.06.06004-.04.02002-.08v-.06l-.06004-.0399c-.04003-.04-.06004-.08-.08006-.1v.04l.06004-.04c-.04002-.06-.06004-.1-.08005-.16l-.08005-.08.02001-.02-.02001-.04-.06004-.0599-.12009-.12-.1601-.12-.10007-.08-.08006-.1199v-.04l.04003-.04.04003-.08.04003-.08-.04003-.02.06004-.12.02001-.0799-.06004-.08-.08005-.02-.04003-.06-.04003-.02v-.04l-.1601.04-.06004-.02-.06005.02-.12008-.02-.1601-.1-.06004-.08-.10007-.08c-.08006-.0399-.18012-.0399-.26018-.0599h-.12008-.12008l-.26018.04-.08005.0199h-.14009l-.1401-.0799h-.08005l-.10007-.06-.08006-.02-.18012-.02c-.08005 0-.1601.02-.26017.02l-.04003-.02-.04003-.02-.14009-.1-.1401-.12-.12008-.0999-.10006-.12-.04003-.02-.12008-.08-.08006-.1-.02001-.06-.02001-.0999-.06004-.08-.04003-.08-.04003-.04-.04002-.04-.02002-.06-.02001-.04-.04003-.04-.06004-.0599-.06004-.02-.04003-.06v-.02l-.04002-.04c-.02002-.06-.02002-.08-.02002-.14l.02002-.06-.04003-.1199-.06004-.08h.06004l.08005-.08.04003-.06v-.08l.04003-.06.04002-.1199v-.14-.08l.02002-.06-.02002-.08-.06004-.0799c.02002-.04.02002-.08.04003-.1l.06004-.02.06004-.06v-.06l.06004-.08.08006-.06h.06004l.06004-.0799.02001-.08.06004-.08.08006-.02.10006-.1.08006-.04.12008.02.12008-.06.08005-.02.12008-.0799v-.1l.08006-.1.04003-.08.10006-.08.1401-.02.10006-.04.12009-.11993.06004-.07998.10006.02.08006.07998.12008.02.14009.07993.06004.02.1401-.0599h.16011l.10006-.04003.1401-.02c.16011 0 .32022.02.48032.04003l.08006.0599.14009-.0399.16011.02.06004.0399h.08005l.16011-.0399.10007.0199v.08l.12008-.04v.04l-.08005.08v.08l.06004.04-.02002.12-.10006.0799.02001.08h.08005l.04003.08.06004.02.18012.06.06004-.02.12008.04.20014.08.08005.1199c.10007.02.24017.06.34023.08l.16011.08.08006-.04.08005-.08-.04003-.0999.04003-.08.10007-.08.10007-.02.20013.02.06002.06h.0601l.06.02h.1401l.04.04.2002-.02c.12.02.2401.04.3602.08l.1001-.06.06-.06.1201-.04h.1001l.04.08.04-.06.1001.02.1-.02.0801-.06.04-.06h-.02l.04-.08.0201-.1.02-.0399.04-.12.06-.1-.04-.1.02-.08-.08-.09993.04-.07999-.0801.03999-.1-.01999-.1801.13992-.2002.06-.1201-.06h-.12l-.0201.08-.08.04-.1401-.06-.1401.02-.0801-.1199-.1-.08003.06-.11997-.08-.05999.1401-.13997.2001-.01999.04-.09998.2602-.02.1401-.09998.1401-.07998.2201-.03999.2402.05999.2001.01999.1401-.05998.1001-.02.1201-.09998v-.07998l-.1001-.09998-.08-.03999h-.0801l-.06-.03999-.1802-.07998-.1401-.02-.12-.05999.08-.03999.0801-.13997-.0801-.03999.1601-.07998v-.03999l-.1.01999-.1001.02-.0801.05998-.12.04-.0801.07998.02.07998.0801.02.12-.03999-.02.07998-.12.03999-.1602.09998-.08-.02.02-.07998-.1401-.02.02-.03999.1001-.07998-.04-.02h-.2002l-.02-.05998-.1001.05998-.04.07999-.08.11997v.03999l-.0601.03999-.04-.01999-.02.17996-.0601.07998-.04.09998.0601.07998.02.05999.1201.03999-.0201.03999-.1601.02-.06.05999-.1001.07998-.06-.07998v-.04h-.0801-.08l-.14012.05999.08002.07998-.08002.04c-.02001 0-.06004 0-.08005 0l-.08006-.07999v.02l.04003.07998.08005.07998-.06004.04.08006.05998.08003.03999v.08003l-.10005-.04003.04003.07993-.08005.02.06004.12h-.08006l-.10006-.06-.06004-.0999-.04003-.08003c-.04003-.05999-.08006-.07998-.12008-.13997l-.02002-.03999-.02001-.02v-.03999l-.10007-.07998-.02001-.05999.02001-.07998.02002-.05999-.02002-.01999-.04002-.02-.04003-.05999c-.06004-.03999-.12008-.05998-.18012-.07998l-.08006-.05999-.12008-.01999-.12008-.07998.04003-.02-.06004-.05999v-.05998l-.08006-.02-.04002.05999-.04003-.05999v-.05999l.04003-.01999-.10007-.02-.10007.05999v.07998l-.02001.03999.04002.07999.12008.07998.08006.11997.14009.11998h.10007l.04003.03999-.04003.03999c.08006.03999.1401.07998.22015.07998l.12008.07998.02001.04-.02001.05998-.08005-.09998-.12008-.01999-.06004.07998.10006.05999-.02001.07998h-.06004l-.06004.11998-.06004.02003c0-.02003 0-.04003 0-.04003l.04002-.07998.04003-.03999c-.04003-.05999-.08005-.09998-.08005-.15997l-.06004-.02-.04003-.07998h-.10007l-.14009-.05999-.10007-.01999-.10007-.07998-.12008-.09998-.08005-.07998-.04003-.13997-.08005-.02-.10007-.05999-.02001.02-.08006.05999h-.06004l-.14009.07998-.26018-.07998-.20013.01999-.04003.07998v.07999l-.16011.07998h-.18012l-.02001.05999-.08006.05998-.08005.09998.04002.07998-.08005.04-.04003.07998h-.10006l-.1401.09998c-.10007-.02-.20013-.03999-.3002-.07999l-.08006.04-.06004.03999-.08005-.03999-.04003-.05999-.02001-.07998-.1401-.04-.06004.02-.08005-.03999h-.06004l.04003-.09998v-.07998l-.04003-.03999-.02001-.05999.04002-.07998.06004-.03999.02002-.05999.06004-.07998.02001-.05999-.04003-.05999v-.05999l.04003-.07998-.04003-.07998.20014-.05999.14009.07998.16011.04.12008.05998.10007.02.22015.05999.08005-.07999.08006-.25994-.10007-.17996-.08005-.07998-.18013-.07999.02002-.09998h.16011l.20013.07999v-.15997l.10007.07998.3002-.05998.06004-.09998c.08006 0 .1401-.02.22015-.02l.08005-.03999.1401-.19996.18012-.03999.10007.02.02001-.03999h.1401l.02001.03999.08005-.05999-.02001-.05999v-.07998l-.04003-.07998.02002-.13997.02001-.03999.04003-.03999h.10007l.04002-.04.08006-.03999-.02002.07999-.04002.03999.02001.03999.06004.01999-.04003.05999-.04002-.01999-.08006.05998.02002.07999v.05998l.10006.03999v.05999l.12008-.01999.08006-.04.12008.05999.06004.05999.08005-.03999c.10007-.03999.22015-.07999.32022-.09998l.10007.01999.02001.04h.10007l.02001-.05999.16011-.05999v-.15996-.09998l.06004-.07999.10007-.05998.08005.09998h.08006c0-.07999.02001-.11998.02001-.19996l-.04003.02-.08005-.05999-.02001-.07998.12008-.05999.12008-.03999.10003.01999.1001-.01999.1001-.07999-.1201-.05998-.1201.05998-.18011.07999-.16011.03999-.06004-.09998-.10007-.03999.02001-.13997-.06004-.11998.04003-.07998.08005-.07998.22015-.15997.06004-.03999-.02001-.05998-.10007-.04-.16011.05999-.08005.07998.02001.07999-.14009.09997-.18012.11998-.08006.19996.08006.07998.10006.07998-.10006.17996-.10007.03999-.10007.23995-.08005.11998-.1401-.02-.08005.09998h-.12008l-.04003-.13997-.06004-.13997-.08005-.19996-.08006-.07998-.24016.13997-.14009.02-.1401-.07999v-.17996l.02001-.31993.10007-.07998.28019-.07999.22015-.11997c.14009-.13997.28019-.27994.4403-.4399.14009-.07999.26017-.17997.40027-.25995l.18012-.07998h.14009l.12009-.11998h.14009l.14009-.03999.26021.07999-.0801.03999.1001.07998.08-.05999.1601.05999.2402-.02.3603.07999.1.05998.04.07999-.08.07998-.1201.07998c-.1201 0-.2802-.01999-.4203-.03999l-.06.03999.1601.07998.06.19996.1201.02.0801.01999v-.07998l-.0801-.05999.0601-.05998.2401.03999.0801-.05999-.0801-.05999.1601-.17996.0801-.01999.08.01999.02-.09998-.08-.05998v-.07999l-.1201-.05998.2402-.02.08.05999-.08.05999.04.07998.0801.01999.1-.07998-.02-.07998.1201-.09998.2001-.19996.0601-.01999-.0601.07998.0801-.02.02-.05998.1201-.05999.08-.07998.1201.03999.02-.09998-.1-.03999v-.05999l.2201-.07998.1001-.02h.3002l-.02-.07998-.1001-.01999v-.05999l-.0801.03999-.02-.07998-.1-.07999-.0401-.03999.02-.15996-.06-.11998.02-.05998.1401-.07999.0801.05999.04.11997h.06l.0801.05999.1201.15997.1.01999.0401.07999.04.23994.08-.03999-.02-.05998.0401-.07999-.0401-.07998v-.07998l-.08.01999-.04-.07998-.0601.03999-.06-.07998-.0601-.13997-.1401-.03999.02-.13997h-.08l.02-.02.0801.03999.08.09998.0801-.01999-.0801-.05999.04-.09998.0801-.07998.1201-.02-.1201-.03999-.1201-.07998.04-.07998.0801-.07999.06-.09998-.08-.01999-.0601-.09998.0401-.05999-.02-.11997.04-.11997-.04-.04.04-.09998.04-.01999-.04-.11997-.02-.11998-.0601-.03999-.06-.07998-.04-.11998.06-.05998.04.07998.02-.07998.0801.01999-.04-.05999v-.11997l.06-.07998.04-.02.0801.03999.06.05999.0801.13997.04.05999.02-.05999.02-.05999-.04-.05998.0801.01999-.0401-.03999-.04-.07998-.02-.11998.06.02-.1-.15997-.1001-.01999-.04-.07998-.04-.05999.02-.05999h.06l.0801.05999.06-.02v-.05998l-.1401-.07999v-.05998l-.08-.07999-.0801-.07998-.06-.03999-.0601-.05999h-.08l-.1001-.05999c-.1001-.099974-.1001-.099974-.3803-.299931l-.08-.079982c-1.9613-.839819-4.20285-.939798-6.24423-.27994l.12008-.039991c-.08006.059987-.18012.079982-.28019.119974l-.16011.079982c-.06004.019996-.10007.059987-.18012.079983l.06004-.039991.08005-.079983.02002-.019996c-.02002.019996-.06004.019996-.08006.039992l.02002.019995v.019996l-.08006.079983-.08005.039991h-.04003l-.10007.059987-.12008.059987v.039992l-.08005.039991-.1401.039991h.02002l.14009-.059987-.02001.039992c-.06004.039991-.10007.059985-.16011.079985-.08005.01999-.14009.05998-.22015.07998-.08005.05999-.18012.09998-.26017.17996l-.04003.02.08005-.07999-.08005.04h-.02001c.08005-.05999.14009-.09998.22014-.15997l.02002-.03999.08005-.079984c.06004-.039991.10007-.079983.18012-.119974-.06004.019996-.10006.059987-.1601.079983h-.02002l-.02001.039991-.10007.059984-.04003.02.08006-.05999v.02l-.06004.05998-.02002.04c-.06004.03999-.10006.07998-.1601.09997l-.04003.02-.12008.07998-.06004.07999-.08006.07998.08006-.03999-.02002.03999-.10006.09998-.10007.01999h.06004l-.04003.03999.08006-.01999c.08005-.05999.12008-.07998.20013-.13997l.12008-.03999.06004.03999-.06004.07998-.08005.05999-.16011.09998-.04003-.02-.08005.09998-.10007.05999.06004.03999-.10006.07998h-.08006l-.10007.07998.06004.02h.08006l.12008-.05999c-.02001.05999-.06004.09998-.08005.15997l-.08006.07998-.04003.05999h-.06004l-.08005.07998-.06004.02-.08006-.07999.02002-.07998.06004-.07998-.06004.01999h-.08006-.04002l-.02002-.01999.04003-.07999-.02001-.01999-.08006.03999.02002-.05999-.04003-.01999h-.08005l-.08006.01999-.10007.05999-.06004.09998c-.08005.05999-.14009.09998-.20013.15996l-.04003.07999c-.08005.09998-.16011.21995-.26017.29993-.04003.07998-.08006.11998-.12009.19996-.02001.07998-.06004.11997-.08005.19996l-.08005.05998-.08006.07999-.12008.13997-.10007.17996.02002.01999.08005-.05998.16011-.15997.06004-.07998.02001.07998.06004.02.08006-.02.08005-.05999.08006-.09998.08005-.11997h.10007l.10007-.07998.18012-.11998.02001.02-.04003.07998v.07998l.04003.04c-.04003.07998-.08005.11997-.10007.19995l-.08005.02v.09998l-.08006.07998-.12008.11997-.02001.07999-.06004.07998.08005.03999.12008-.03999h.06005c-.10007.15996-.20014.31993-.28019.49989l-.10007.03999-.02001.13997-.04003.09998.02001.11998-.02001.07998-.08006.09998.02002.05998-.02002.07999-.08005.11997h-.06004l-.04003-.03999-.08005-.07998h-.10007l-.06004-.07999-.04003-.15996-.02001-.09998-.02001-.07998-.08006.01999-.06004-.05998-.12008.01999h-.08005l.02001.05999.12008-.02.10007.07999.04003.07998-.04003.09998h-.08006c-.06004.07998-.10006.13997-.14009.23994l-.02001.13997.06004.09998.12008-.05998-.06004.11997-.02002.07998-.08005-.01999-.10007-.07999-.06004-.03999h-.08005v-.07998l.08005-.07998.08006.03999-.02002-.11998-.02001-.07998-.02001.05999-.06005-.03999-.06004-.03999-.04002-.05999-.06004.02h-.02002l-.04002.05998-.02002.09998v.03999l.04003-.05999-.02001.05999-.02002.02-.02001-.03999v-.04l-.02001-.03999c0-.01999 0-.05998-.02002-.07998v-.01999l.02002.07998-.02002.05998-.02001-.07998v-.05998h-.02001v.03999l-.06005.05998-.06004.02.02002-.03999v-.02l.02001-.05998-.04003.07998-.02001.03999-.02001.03999v.02l-.060044.03999v-.02l.040027-.05999.040027-.07998.06004-.07998-.04003.03999-.060037.07998.020017-.07998-.04003.07998-.080054.09998v.03999c-.040027.05999-.060041.09998-.080054.15997l-.040027.01999v-.05998h-.040027c-.360243.79983-.600406 1.67964-.6804596 2.57944v.02c-.04002703.51988-.0600405.99978-.04002699 1.45968.02001349.03999.02001349.07998.04002699.11998l-.0200135-.05999v.07998l.0200135.07998.0200136.11998v.09998l.0200135.03999c.0200135.10002.0400265.19992.0600405.29992v.08l.040027.08c.020014.06.020014.12.040027.1799l.060041.12v-.02l.040027.06c.040027.08.080054.18.100067.26l.060041.1999.020013.08.020014.02c.040027.12.06004.2399.080054.3599l.040027.06.020013.08-.06004.02.020013.06.100068.1599.020013.12.040027-.02c.080054.1.140095.24.220152.3399l.06004.1v.06l.08005.06.16011.2199.12008.1c.08005.14.20014.26.26018.4199l.08005.08.08005.08.04003.06c.04003.08.06004.1599.08006.2399l.02001.14-.02001.04-.08006.04-.02001.08v.0399l-.02002-.0399v.0599c.06004.12.10007.26.16011.36v.02l.02002.06c1.20081 1.4796 2.86193 2.5594 4.70317 3.0193 1.76119.4599 3.66251.3799 5.36361-.2599 3.1621-1.1598 5.4837-4.0592 5.864-7.4184.04-.29998.04-.59991.04-.91984zm-9.56646.85981.16011.02c.08005 0 .16011-.02.26017-.02l-.06004.09993.02002.04-.04003.08-.10007-.06-.08005-.02-.20014-.0799zm3.32226-5.29886.08-.13997-.08.02.06-.15997-.06-.05998c.08-.07999.1401-.17997.2201-.25995l.1401-.09998.0601-.07998.08-.07998.0801.01999v.05999c-.0801.09998-.1601.19996-.2402.29994l-.08.19995-.0201.13997-.02.15997.0801.07998.1601.02-.04.03999-.2402.07998-.06-.05999-.1201.02-.0601-.05999.0601-.05998zm-9.36634.59987c-.06004.02-.10007.05999-.18012.07999h.06004v.07998l-.04003.01999.02001.07999h.04003l.02002.09998-.08006.05998.04003.03999-.04003.05999-.04003.07998-.08005.05999-.02001-.02-.02002-.07998.08006-.07998v-.03999l-.10007.01999-.04003-.01999h.08006l-.02002-.07998-.04002-.07999-.06004-.13997.02001-.03999h.06004l.02001-.05999h.08006l.18012-.07998.08005-.01999.06004.01999.02002.03999zm3.36227.43991h-.08005c-.08006-.07998-.20014-.11998-.28019-.19996l.10006-.01999-.12008-.13997.1401.03999.02001-.03999-.12008-.09998.08005-.05999.12008.03999.08006.13997.16011-.01999.08005.07998.16011-.02.12008.05999-.08005.07998.06004.11998-.16011.05998c-.10007 0-.18012 0-.28019-.01999zm.24016 1.89959-.14009-.07998.12008-.09998-.02002-.15997c.08006-.03999.18013-.07998.28019-.09998l.08006.02.08005.09998-.08005.07998-.02002.09998-.08005.11997zm1.20081.21995-.08005.03999.04003.07999-.12009.03999-.1601-.03999h-.22015l-.06004-.04-.08006.05999-.10006-.05999-.08006.04-.06004-.04.22015-.09997h.10007l-.18012-.07999-.02002-.07998.12008-.02-.04002-.07998.06004-.07998.1601.05999.04003-.07999-.06004-.09998-.12008-.05998-.02001-.03999.06004-.05999-.02002-.05999-.10006.05999.04002-.11997-.04002-.07999.08005-.11997.10007-.07998.08005.03999.12008.01999-.16011.11998h.12009l.12008.01999-.06004.09998-.12008.09998.10006.03999.08006.19996.08005.03999.04003.17996.02001.05999.1401.05998zm-1.72116-6.85852.12008-.099978.08006-.079983.08005-.059987h.04003l-.08006.059987c.06004-.039991.1401-.079982.22015-.13997l.08006-.039991.02001.039991-.02001.019996c-.10007.059987-.20014.099979-.30021.13997l-.08005.059987.16011-.059987v.019996l-.06004.039991c-.04003.019996-.08006.019996-.12009.039991l-.02001.039992-.06004.039991zm.34023.57988-.02001.03999-.06004.03999h.08005l.02001.03999v.05999l-.02001.05998-.02001.02.02001.07998v.13997.15997l-.02001.11997-.04003.02-.08005-.05999-.06005-.03999-.02001-.02.02001.07999-.08005-.05999-.06004-.03999-.10007-.02-.02001-.07998-.02001-.02v-.09998l-.02002.05999-.02001-.01999-.08006.05998-.04002-.01999-.02002-.05999h-.06004l-.04002-.03999-.06004.01999v.07999l-.04003.01999-.06004-.07998.08005-.11997.02002-.09998c.04002-.05999.06004-.07998.08005-.13997l.06004-.02-.02001.07999.10006-.05999v.01999l-.10006.11998.10006-.07998.06005-.07999.04002.02v.05999h.04003l.08005-.07999.08006-.03999-.06004.09998-.02002.03999.04003.03999.04003-.07998.04002-.11997.08006-.07999.08005-.03999.08006-.01999.06004-.02v.05999h-.04003l-.04003.05998zm-.34023-.19996h.04003l.02001.01999.06004-.07998.08006-.03999.08005-.03999.04003.01999.02001.02-.02001.03999.04002-.01999-.06004.07998-.08005.05999c-.04003.03999-.08005.07998-.10007.11997l-.14009.05999-.06004.05998-.02002-.03999-.06004-.05998.04003-.07999.08005-.07998zm-.04003-.05999.02002-.05999.06004-.03999.06004-.01999.06004-.02-.04003.05999-.02001.01999-.08006.05999zm-.14009.07998-.08006.05999-.06004.07998-.06004.05999h-.04002l-.04003.03999-.04003.03999c-.02001.04-.06004.07999-.08005.11998v.05999l-.04003.07998-.04003.07998-.06004.07998-.06004.03999-.04002-.01999v-.09998l.04002-.05999.04003-.11997.04003-.07998.06004-.07999.10007-.11997.08005-.03999.08005-.02.08006-.05998.08005-.07999.08006-.05998h.04002zm.40027-.25994-.08006.02-.06004.01999.08006-.05999.08005-.05998.08006-.079985v.039991l.08005-.039991h.06004c-.10007.059985-.18012.119975-.24016.159965zm-.50034.11997.06004-.03999.08006-.01999.06004-.05999.08005-.03999-.06004.05999-.02001.05998-.06004.05999h.02001l-.08005.02-.06005.01999c-.02001 0-.06004 0-.08005 0zm-.4403.15997.06004-.03999c.08006-.05999.16011-.09998.26018-.15997h.04003l-.08006.07999.10007-.05999v.03999l-.08005.05999-.06004.07998-.04003.02-.02001-.02-.12009.05999-.08005-.02zm-.02001.07998.12008-.05998.06004-.02.04003.02v.03999l-.08006.07998-.06004.09998-.08005-.03999.02001-.05999-.06004-.02zm-1.30088 1.07977.06004-.05999-.04002-.01999-.02002-.07999.08006-.05998.02001-.07999.04003.02.08005-.03999.08005-.03999-.02001.03999-.06004.03999v.02l-.04003.09997c-.04002.05999-.08005.09998-.10006.15997l-.06004.03999v.03999l-.06004.05999-.02002-.03999zm.24016.61987-.06004.03999-.06004.09998-.06004.09997-.02001.04-.10007.09997-.08005.04.02001-.07999.08006-.19995c-.06005.07998-.08006.15996-.1401.25994l-.04003.02.02002-.17997.06004-.15996.06004-.09998h.04003c.04002-.07998.08005-.15996.10006-.23995l-.04002.02v-.13997l.06004-.07998.08005-.02-.02001.09998v.09998l.04002-.04.06004-.01999h.10007l.06004-.03999.04003-.03999.06004-.09998.06004-.11998.02001.02.08006-.07998.02001-.05999.06004-.05999.02002-.03999v-.07998l.08005-.19996c.06004-.07998.08005-.13997.12008-.19995l.06004-.05999.04003.03999.04003-.07998.12008-.05999h.08005l.02001.03999-.02001.09998h-.12008l-.08005.07998h.08005l.02001.07998-.14009.11998-.08006.01999.02002.07999.04002.01999-.08005.11998-.06004.07998-.06004.05999.04003.07998-.08006.07998-.04002.13997-.04003.07998-.10007.09998-.08005-.05998-.06004.15996v.07998l-.08006.13997.02002.07999-.08006.03999h-.16011l.04003-.09998.08005-.15997zm0 1.8196v-.15996l-.08005-.09998.02001-.09998.08006-.11997.08005-.21996.06004-.07998.08006-.07998.06004-.15997.08005-.05998.02001-.07999.16011-.05998.08006.03999.06004-.02.08005-.05998-.08005-.02-.04003-.02-.04003-.03999v-.07998l.08006-.05999.08005-.03999.04003.03999.04003.09998c.02001-.07998.02001-.11997.04002-.19996l-.04002-.03999v-.05998l.14009-.04.04003-.05998c.06004-.07999.10006-.13997.1601-.21995l.02002-.07999.06004-.03999.04003-.13997-.02002-.07998c-.02001-.07998-.04002-.11998-.06004-.19996l.04003-.07998.08005-.09998.06004.07998.02002.07999.02001-.17997.06004-.09997.06004-.02.08006.11997.08005.09998.04003-.11997.06004.01999.12008.07999.04003.03999.06004-.03999.08005.05998.08005.07999.06004.07998-.02001.05999.12008.03999.02002.09998.02001.05998.02001.07999v-.09998l.06004-.03999.16011.05998.08006.09998h.08005c.14009.07999.26018.19996.40027.27994.06004.07998.12008.13997.20014.21995h-.10007c-.12008-.07998-.26018-.11997-.40027-.19995v.03999l.14009.07998.08006.09998.10006.02v.05998l-.10006.03999.14009.02c.08005.02.18012.03999.26018.05999l.14009.07998v.05999h-.26017l-.06005.01999-.18012-.05998.10007.05998-.12008.05999-.08005.05999-.08006.11997.02001.09998-.08005-.03999h-.12008l.06004.09998-.06004.09997-.08005-.01999.02001.11997-.1401-.05998.04003.07998-.06004.03999-.08005-.02-.08006-.03999.02002.09998-.04003.05999-.08005-.09998-.06005.02.06005.07998.04002.09998-.04002.07998-.12009-.03999c-.02001-.05999-.04002-.09998-.06004-.17996l-.04002.07998-.10007.02c.08005.05998.16011.07998.26017.13997l-.26017.01999h-.24016l-.22015-.07998-.08006-.03999h-.14009l-.18012.05998-.18012-.01999-.04003-.02c-.08005-.01999-.12008-.05998-.20014-.07998l-.08005.03999-.08005.07998-.08006.05999h-.16011l-.06004.09998c-.08005.05999-.14009.07998-.22015.13997zm9.90668 10.85766-.04.04-.02-.04-.0401.04v.06.04l-.04.04-.04.0799c-.1401.18-.2802.34-.4403.4999l-.0801.08c-.08.04-.1401.08-.2201.1-.06 0-.0801 0-.1401 0l-.02-.02.02-.06-.02-.04.02-.06.04-.0599.0601-.04.02-.02.08-.08.0401-.06-.0401-.04v-.04l.02-.08.0601-.06.04-.0599.0801-.02c.04-.02.08-.04.12-.08l.0601-.02c.08-.06.1401-.1.2201-.16l.0601-.06v.06h.06l.0801-.08.02-.06.06-.0599.0401.02.02.0199.02.06-.0601.08.0201.04zm3.6425-4.3791-.0401.08-.08.1-.02-.06-.02-.1599.04-.26.06.02.0401.06.04.08v.1399z" fill="#cafcff"/></g></svg>